<svg xmlns="http://www.w3.org/2000/svg" aria-labelledby="comicIconTitle" viewBox="0 0 120 120"><title id="comicIconTitle">Lectura de manga, manhwa y manhua</title><rect width="120" height="120" fill="#0c0d12" rx="24"/><path fill="none" stroke="#f3f4f6" stroke-linejoin="round" stroke-width="2.2" d="M60 34c-8-6-19-8-29-6-3 .5-5 3-5 6v46c0 3.4 3 5.8 6.2 5.3 9-1.3 18.8.4 27.8 5.4 9-5 18.8-6.7 27.8-5.4 3.2.5 6.2-1.9 6.2-5.3V34c0-3-2-5.5-5-6-10-2-21 0-29 6Z"/><path stroke="#f3f4f6" stroke-width="2.2" d="M60 34v51"/><path stroke="#f97316" stroke-linecap="round" stroke-width="4" d="M31 44v34"/><path stroke="#8b5cf6" stroke-linecap="round" stroke-width="4" d="M60 40v45"/><path stroke="#10b981" stroke-linecap="round" stroke-width="4" d="M89 44v34"/><path fill="#8b5cf6" d="M76 14h20a4 4 0 0 1 4 4v11a4 4 0 0 1-4 4h-5.5L84 40v-7h-8a4 4 0 0 1-4-4V18a4 4 0 0 1 4-4"/></svg>